<svg width="500" height="500" viewBox="0 0 500 500" fill="none" xmlns="http://www.w3.org/2000/svg">
<g clip-path="url(#clip0_20_2)">
<path d="M99.2712 350.076C99.2712 348.419 100.614 347.076 102.271 347.076H320.564C322.975 347.076 324.401 349.775 323.043 351.766L254.739 451.93C254.18 452.749 253.252 453.239 252.26 453.239H102.271C100.614 453.239 99.2712 451.896 99.2712 450.239V350.076Z" fill="#5772FF"/>
<path d="M167.934 348.387C168.492 347.567 169.421 347.076 170.413 347.076H320.473C322.901 347.076 324.323 349.811 322.929 351.799L252.67 451.962C252.108 452.763 251.191 453.239 250.214 453.239H102.198C99.7888 453.239 98.3625 450.542 99.7188 448.551L167.934 348.387Z" fill="url(#paint0_linear_20_2)"/>
<path fill-rule="evenodd" clip-rule="evenodd" d="M309.731 150.956C310.316 149.996 310.314 148.789 309.727 147.831L248.277 47.4339C247.104 45.5162 244.315 45.5235 243.152 47.4473L0.437765 448.687C-0.771676 450.686 0.667958 453.239 3.00467 453.239H124.126C125.173 453.239 126.144 452.693 126.689 451.799L250.049 249.048C251.218 247.127 254.007 247.127 255.175 249.049L378.447 451.798C378.991 452.693 379.963 453.239 381.01 453.239H497.559C499.894 453.239 501.334 450.688 500.127 448.688L365.555 225.888C365.012 224.988 364.038 224.439 362.987 224.439H270.359C268.019 224.439 266.58 221.879 267.796 219.879L309.731 150.956Z" fill="#5772FF"/>
</g>
<defs>
<linearGradient id="paint0_linear_20_2" x1="87.3736" y1="353.482" x2="228.811" y2="494.92" gradientUnits="userSpaceOnUse">
<stop stop-opacity="0.56"/>
<stop offset="0.832797" stop-opacity="0"/>
</linearGradient>
<clipPath id="clip0_20_2">
<rect width="500" height="500" fill="white"/>
</clipPath>
</defs>
</svg>
