<svg width="310" height="259"  xmlns="http://www.w3.org/2000/svg" xmlns:xlink="http://www.w3.org/1999/xlink" view-box="0 0 272 222" fill="none">
  <path
    d="M53.1838 166.229C53.1838 164.572 54.5269 163.229 56.1838 163.229H171.507C173.917 163.229 175.343 165.928 173.985 167.919L138.525 219.919C137.966 220.738 137.039 221.229 136.047 221.229H56.1838C54.5269 221.229 53.1838 219.886 53.1838 218.229V166.229Z"
    fill="#5772FF"
  />
  <path
    d="M90.2907 164.54C90.8494 163.72 91.7777 163.229 92.7703 163.229H171.415C173.843 163.229 175.266 165.963 173.871 167.951L137.396 219.951C136.834 220.752 135.918 221.229 134.94 221.229H57.3565C54.947 221.229 53.5206 218.532 54.8769 216.54L90.2907 164.54Z"
    fill="url(#paint0_linear_11_17)"
  />
  <path
    fill-rule="evenodd"
    clip-rule="evenodd"
    d="M167.732 56.7928C168.316 55.8324 168.315 54.6261 167.728 53.6673L135.758 1.43389C134.584 -0.483791 131.796 -0.476505 130.632 1.44728L0.437782 216.676C-0.771659 218.675 0.667971 221.229 3.00468 221.229H65.9974C67.0446 221.229 68.016 220.683 68.5603 219.788L134.395 111.585C135.564 109.664 138.353 109.664 139.521 111.586L205.307 219.787C205.852 220.682 206.823 221.229 207.871 221.229H268.367C270.703 221.229 272.143 218.677 270.935 216.678L199.059 97.6777C198.516 96.7784 197.542 96.2288 196.491 96.2288H149.075C146.735 96.2288 145.296 93.6686 146.512 91.6694L167.732 56.7928Z"
    fill="#5772FF"
  />
  <defs>
    <linearGradient
      id="paint0_linear_11_17"
      x1="46.6838"
      y1="166.729"
      x2="123.955"
      y2="244"
      gradientUnits="userSpaceOnUse"
    >
      <stop stop-opacity="0.56" />
      <stop offset="0.832797" stop-opacity="0" />
    </linearGradient>
  </defs>
</svg>